<?xml version="1.0" encoding="UTF-8" standalone="no"?>
<!DOCTYPE svg PUBLIC "-//W3C//DTD SVG 1.1//EN"
 "http://www.w3.org/Graphics/SVG/1.1/DTD/svg11.dtd">
<!-- Generated by graphviz version 12.1.2 (20240928.0832)
 -->
<!-- Title: G Pages: 1 -->
<svg width="362pt" height="98pt"
 viewBox="0.00 0.00 361.75 98.00" xmlns="http://www.w3.org/2000/svg" xmlns:xlink="http://www.w3.org/1999/xlink">
<g id="graph0" class="graph" transform="scale(1 1) rotate(0) translate(4 94)">
<title>G</title>
<polygon fill="white" stroke="none" points="-4,4 -4,-94 357.75,-94 357.75,4 -4,4"/>
<!-- local_file.random_name_file -->
<g id="node1" class="node">
<title>local_file.random_name_file</title>
<polygon fill="none" stroke="black" points="353.75,-36 165.25,-36 165.25,0 353.75,0 353.75,-36"/>
<text text-anchor="middle" x="259.5" y="-13.32" font-family="sans-serif" font-size="14.00">local_file.random_name_file</text>
</g>
<!-- random_pet.name -->
<g id="node2" class="node">
<title>random_pet.name</title>
<polygon fill="none" stroke="black" points="129.25,-36 0,-36 0,0 129.25,0 129.25,-36"/>
<text text-anchor="middle" x="64.62" y="-13.32" font-family="sans-serif" font-size="14.00">random_pet.name</text>
</g>
<!-- local_file.random_name_file&#45;&gt;random_pet.name -->
<g id="edge1" class="edge">
<title>local_file.random_name_file&#45;&gt;random_pet.name</title>
<path fill="none" stroke="black" d="M164.89,-18C156.89,-18 148.87,-18 141.04,-18"/>
<polygon fill="black" stroke="black" points="141.25,-14.5 131.25,-18 141.25,-21.5 141.25,-14.5"/>
</g>
<!-- tls_private_key.pvtkey -->
<g id="node3" class="node">
<title>tls_private_key.pvtkey</title>
<polygon fill="none" stroke="black" points="334.62,-90 184.38,-90 184.38,-54 334.62,-54 334.62,-90"/>
<text text-anchor="middle" x="259.5" y="-67.33" font-family="sans-serif" font-size="14.00">tls_private_key.pvtkey</text>
</g>
</g>
</svg>
